<html>
<head>
<meta charset="UTF-8">
<meta name="viewport" content="width=device-width, initial-scale=1.0"/>

<style>
.comment
{
    padding-left: 20px;
    margin-top: 4px;
    margin-right: 4px;
    margin-bottom: 4px;
    border: 2px #000 solid;
}
.submission
{
    border: 4px #00f solid;
    padding-left: 20px;
}
.hidden
{
    display: none;
}
</style>
</head>
<body><div class="submission" id="t3_83o6px">
    <p class="userinfo">
        <a href="https://www.reddit.com/u/arshizzle">arshizzle</a>
        <span class="score"> | 8 points</span>
        <span class="timestamp"> | Mar 11 2018 17:37:50</span>
    </p>
    <strong>[MOVIE] High School Musical 2 (2007) Disney Channel Original Movie</strong>
    <p><pre><code>https:// m e g a .nz/#!VyxGmAQZ!peEVX7DHLkY66AKBXIufTBKDBcbIu3kKuK9tC35ZUqY
</code></pre>
<p>remove the spaces</p></p>
    <p class="toolbar">
        <a href="https://www.reddit.com/r/megalinks/comments/83o6px">permalink</a>
    </p>
</div>
<div class="comment" id="t1_dvjd4wh">
    <p class="userinfo">
        <a
        class="toggle_hide_button"
        href="javascript:void(0)"
        onclick="toggle_collapse(this.parentElement.parentElement)">[-]
        </a>
        <a href="https://www.reddit.com/u/luchorz93">luchorz93</a>
        <span class="score"> | 1 points</span>
        <span class="timestamp"> | Mar 11 2018 18:42:32</span>
    </p>
    <div class="collapsible">
        <p>What's the quality?</p>
        <p class="toolbar">
            <a href="https://www.reddit.com/r/megalinks/comments/83o6px/_/dvjd4wh">permalink</a>
        </p>
        <div class="comment" id="t1_dvjmx3m">
    <p class="userinfo">
        <a
        class="toggle_hide_button"
        href="javascript:void(0)"
        onclick="toggle_collapse(this.parentElement.parentElement)">[-]
        </a>
        <a href="https://www.reddit.com/u/arshizzle">arshizzle</a>
        <span class="score"> | 1 points</span>
        <span class="timestamp"> | Mar 11 2018 21:44:35</span>
    </p>
    <div class="collapsible">
        <p>It's a TV rip </p>
        <p class="toolbar">
            <a href="https://www.reddit.com/r/megalinks/comments/83o6px/_/dvjmx3m">permalink</a>
        </p>
        
    </div>
</div>
    </div>
</div>

<div class="comment" id="t1_dvnfuel">
    <p class="userinfo">
        <a
        class="toggle_hide_button"
        href="javascript:void(0)"
        onclick="toggle_collapse(this.parentElement.parentElement)">[-]
        </a>
        <a href="https://www.reddit.com/u/radiocaf">radiocaf</a>
        <span class="score"> | 1 points</span>
        <span class="timestamp"> | Mar 13 2018 21:27:49</span>
    </p>
    <div class="collapsible">
        <pre><code>General
Complete name               : E:\Synology\video\High School Musical 2.avi
Format                      : AVI
Format/Info                 : Audio Video Interleave
File size                   : 580 MiB
Duration                    : 1 h 43 min
Overall bit rate mode       : Variable
Overall bit rate            : 780 kb/s
Writing application         : MEncoder SVN-r29053-snapshot-4.1.2
Writing library             : MPlayer

Video
ID                          : 0
Format                      : MPEG-4 Visual
Format profile              : Advanced Simple@L5
Format settings, BVOP       : 2
Format settings, QPel       : No
Format settings, GMC        : No warppoints
Format settings, Matrix     : Default (H.263)
Codec ID                    : XVID
Codec ID/Hint               : XviD
Duration                    : 1 h 43 min
Bit rate                    : 687 kb/s
Width                       : 592 pixels
Height                      : 432 pixels
Display aspect ratio        : 1.370
Frame rate                  : 29.970 (30000/1001) FPS
Original frame rate         : 29.970 (29970/1000) FPS
Color space                 : YUV
Chroma subsampling          : 4:2:0
Bit depth                   : 8 bits
Scan type                   : Progressive
Compression mode            : Lossy
Bits/(Pixel*Frame)          : 0.090
Stream size                 : 511 MiB (88%)
Writing library             : XviD 1.3.0.dev55

Audio
ID                          : 1
Format                      : MPEG Audio
Format version              : Version 1
Format profile              : Layer 3
Mode                        : Joint stereo
Mode extension              : MS Stereo
Codec ID                    : 55
Codec ID/Hint               : MP3
Duration                    : 1 h 43 min
Bit rate mode               : Variable
Bit rate                    : 80.0 kb/s
Channel(s)                  : 2 channels
Sampling rate               : 44.1 kHz
Compression mode            : Lossy
Stream size                 : 59.1 MiB (10%)
Alignment                   : Aligned on interleaves
Interleave, duration        : 26  ms (0.78 video frame)
Interleave, preload duratio : 555  ms
</code></pre>
        <p class="toolbar">
            <a href="https://www.reddit.com/r/megalinks/comments/83o6px/_/dvnfuel">permalink</a>
        </p>
        
    </div>
</div>
</body>

<script>
function toggle_collapse(comment_div)
{
    var button = comment_div.getElementsByClassName("toggle_hide_button")[0];
    var collapsible = comment_div.getElementsByClassName("collapsible")[0];
    if (collapsible.classList.contains("hidden"))
    {
        collapsible.classList.remove("hidden");
        button.innerText = "[-]";
    }
    else
    {
        collapsible.classList.add("hidden");
        button.innerText = "[+]";
    }
}
</script>
</html>
